{
    "accessors": {
        "accessor_21": {
            "bufferView": "bufferView_29",
            "byteOffset": 0,
            "byteStride": 0,
            "componentType": 5123,
            "count": 45924,
            "type": "SCALAR"
        },
        "accessor_23": {
            "bufferView": "bufferView_30",
            "byteOffset": 0,
            "byteStride": 12,
            "componentType": 5126,
            "count": 42095,
            "max": [
                50.5971,
                3.11382,
                17.8723
            ],
            "min": [
                -47.7016,
                -4.14227,
                7.36402
            ],
            "type": "VEC3"
        },
        "accessor_25": {
            "bufferView": "bufferView_30",
            "byteOffset": 505140,
            "byteStride": 12,
            "componentType": 5126,
            "count": 42095,
            "max": [
                1,
                1,
                1
            ],
            "min": [
                -0.995734,
                -1,
                -1
            ],
            "type": "VEC3"
        },
        "accessor_27": {
            "bufferView": "bufferView_30",
            "byteOffset": 1010280,
            "byteStride": 8,
            "componentType": 5126,
            "count": 42095,
            "max": [
                2191.77,
                1218.19
            ],
            "min": [
                -1694.52,
                -724.953
            ],
            "type": "VEC2"
        }
    },
    "animations": {},
    "asset": {
        "generator": "collada2gltf@cf6371beb0bdc18ba603378d5e40c966da53d385",
        "premultipliedAlpha": true,
        "profile": {
            "api": "WebGL",
            "version": "1.0.2"
        },
        "version": "1.0"
    },
    "bufferViews": {
        "bufferView_29": {
            "buffer": "\\gift\\models\\ssssss\\sssss",
            "byteLength": 91848,
            "byteOffset": 0,
            "target": 34963
        },
        "bufferView_30": {
            "buffer": "\\gift\\models\\ssssss\\sssss",
            "byteLength": 1347040,
            "byteOffset": 91848,
            "target": 34962
        }
    },
    "buffers": {
        "\\gift\\models\\ssssss\\sssss": {
            "byteLength": 1438888,
            "type": "arraybuffer",
            "uri": "data:application/octet-stream;base64,"
        }
    },
    "images": {
        "PrimerFrame_Box_modeling_JPG": {
            "name": "PrimerFrame_Box_modeling_JPG",
            "uri": "images/0_PrimerFrame_Box_modeling.JPG"
        }
    },
    "materials": {
        "_7_-_Default": {
            "name": "_7_-_Default",
            "technique": "technique0",
            "values": {
                "ambient": "texture_PrimerFrame_Box_modeling_JPG",
                "diffuse": "texture_PrimerFrame_Box_modeling_JPG",
                "emission": [
                    0,
                    0,
                    0,
                    1
                ],
                "shininess": 0,
                "specular": [
                    0.9,
                    0.9,
                    0.9,
                    1
                ]
            }
        }
    },
    "meshes": {
        "geom-__": {
            "name": "__",
            "primitives": [
                {
                    "attributes": {
                        "NORMAL": "accessor_25",
                        "POSITION": "accessor_23",
                        "TEXCOORD_0": "accessor_27"
                    },
                    "indices": "accessor_21",
                    "material": "_7_-_Default",
                    "mode": 4
                }
            ]
        }
    },
    "nodes": {
        "node-__": {
            "children": [
                "node_2"
            ],
            "matrix": [
                0.999704,
                0.0243387,
                -1.93957e-008,
                0,
                2.15825e-008,
                -8.95898e-008,
                1,
                0,
                0.0243387,
                -0.999704,
                -9.00886e-008,
                0,
                9.50515,
                3.62994,
                2.13023,
                1
            ],
            "name": "__"
        },
        "node_0": {
            "children": [],
            "matrix": [
                1,
                0,
                0,
                0,
                0,
                1,
                0,
                0,
                0,
                0,
                1,
                0,
                0,
                0,
                0,
                1
            ],
            "name": "EnvironmentAmbientLight"
        },
        "node_2": {
            "children": [],
            "matrix": [
                1,
                0,
                0,
                0,
                0,
                1,
                0,
                0,
                0,
                0,
                1,
                0,
                10.6122,
                0.514223,
                -17.8936,
                1
            ],
            "meshes": [
                "geom-__"
            ],
            "name": ""
        },
        "node_3": {
            "children": [
                "node_0",
                "node-__"
            ],
            "matrix": [
                1,
                0,
                0,
                0,
                0,
                0,
                -1,
                0,
                0,
                1,
                0,
                0,
                0,
                0,
                0,
                1
            ],
            "name": "Y_UP_Transform"
        }
    },
    "programs": {
        "program_0": {
            "attributes": [
                "a_normal",
                "a_position",
                "a_texcoord0"
            ],
            "fragmentShader": "\\gift\\models\\ssssss\\sssss0FS",
            "vertexShader": "\\gift\\models\\ssssss\\sssss0VS"
        }
    },
    "samplers": {
        "sampler_0": {
            "magFilter": 9729,
            "minFilter": 9729,
            "wrapS": 10497,
            "wrapT": 10497
        }
    },
    "scene": "defaultScene",
    "scenes": {
        "defaultScene": {
            "nodes": [
                "node_3"
            ]
        }
    },
    "shaders": {
        "\\gift\\models\\ssssss\\sssss0FS": {
            "type": 35632,
            "uri": "data:text/plain;base64,"
        },
        "\\gift\\models\\ssssss\\sssss0VS": {
            "type": 35633,
            "uri": "data:text/plain;base64,"
        }
    },
    "skins": {},
    "techniques": {
        "technique0": {
            "attributes": {
                "a_normal": "normal",
                "a_position": "position",
                "a_texcoord0": "texcoord0"
            },
            "parameters": {
                "ambient": {
                    "type": 35678
                },
                "diffuse": {
                    "type": 35678
                },
                "emission": {
                    "type": 35666
                },
                "modelViewMatrix": {
                    "semantic": "MODELVIEW",
                    "type": 35676
                },
                "normal": {
                    "semantic": "NORMAL",
                    "type": 35665
                },
                "normalMatrix": {
                    "semantic": "MODELVIEWINVERSETRANSPOSE",
                    "type": 35675
                },
                "position": {
                    "semantic": "POSITION",
                    "type": 35665
                },
                "projectionMatrix": {
                    "semantic": "PROJECTION",
                    "type": 35676
                },
                "shininess": {
                    "type": 5126
                },
                "specular": {
                    "type": 35666
                },
                "texcoord0": {
                    "semantic": "TEXCOORD_0",
                    "type": 35664
                }
            },
            "program": "program_0",
            "states": {
                "enable": [
                    2929,
                    2884
                ]
            },
            "uniforms": {
                "u_ambient": "ambient",
                "u_diffuse": "diffuse",
                "u_emission": "emission",
                "u_modelViewMatrix": "modelViewMatrix",
                "u_normalMatrix": "normalMatrix",
                "u_projectionMatrix": "projectionMatrix",
                "u_shininess": "shininess",
                "u_specular": "specular"
            }
        }
    },
    "textures": {
        "texture_PrimerFrame_Box_modeling_JPG": {
            "format": 6408,
            "internalFormat": 6408,
            "sampler": "sampler_0",
            "source": "PrimerFrame_Box_modeling_JPG",
            "target": 3553,
            "type": 5121
        }
    }
}