<svg id="图层_1" data-name="图层 1" xmlns="http://www.w3.org/2000/svg" viewBox="0 0 994 559"><defs><style>.cls-1{fill:#24375b;stroke:#30a0d8;stroke-miterlimit:10;}</style></defs><title>地图安阳</title><path class="cls-1" d="M491.44,148.44c-52.5,13.51-83.21,62.28-87.94,84.06-2.25,10.37,0,21.14,3,30.85,24.3,3,73.5,7.81,92,1.15,9.27-3.34,16.61-9.84,23.72-16.95-4-15.7-16.46-32.55-26.72-53.05C488.25,180,489.4,161.12,491.44,148.44Z"/><path class="cls-1" d="M564.5,218.5c19.58-3.26,39.16-3.12,55.68-2.07a65.58,65.58,0,0,0-.68-6.93c-1-4-4-12-20-14s-27-26-28-36,0-26-6-29-18,8-65,16c-1.47.25-2.91.53-4.35.84-1.84,12.61-2.55,30.36,4.35,44.16,9.9,19.79,21.83,36.18,26.27,51.42C537.26,232.16,548,221.25,564.5,218.5Z"/><path class="cls-1" d="M705.5,272.5c-51,0-68-20-77-30-5.07-5.63-7-14.11-7.83-21.16-16.2-1-35.18-1-54.17,2.16-16.86,2.81-27.72,14.14-38.43,25.13a37.68,37.68,0,0,1,.43,3.87c1,18,5,51,12,65s32,27,42,78c3.94,20.11,7.1,34.77,9.19,46.14,13-12.28,35.27-60.43,78.81-69.14,50-10,73-27,85-38,1.56-1.43,3.64-3.41,6.09-5.77-4.29-6.62-4.31-13.67-6.09-17.23C752.5,305.5,756.5,272.5,705.5,272.5Z"/><path class="cls-1" d="M980.5,221.5c-1-5-12-5-13-5s-2-11-3-12-6-2-9-4-11-1-12-1-4-2-4-3a9.88,9.88,0,0,0-2-6c-2-3-12-5-12-6s1-3,0-5-7-5-8-6,4-2,4-2,2-3,2-5-8-8-7-11,5-3,9-1a6.18,6.18,0,0,0,7-1s0-13,5-15c10-3,15-30,14-32s-5-5-12-11,0-29,1-30,3-4,5-6,5-13,4-15-5-1-5-1-15-5-19-6-4-4-5-9c-7-8-8,0-8,0s-1,10-1,12-13,17-13,17h-3a44.32,44.32,0,0,1-6-5c-3-3-9-1-9-1a4.33,4.33,0,0,1-4,2c-3,0-7,2-8,5s2,12,2,12-2,1-9,5-24,3-27,3-1,4-2,5a86.5,86.5,0,0,1-10,7c-2,1-2,6-2,8s-3,3-5,4a2.19,2.19,0,0,0-1,3l1,7a39.87,39.87,0,0,1-3,4c-1,1-6-3-6-3s-5-6-9-8-7,10-7,10l2,6s-1,4-2,5-14,4-15,5-1,6-1,6l-2,3-5,1a47.09,47.09,0,0,1-5-2c-2-1-2-10-3-12s6-7,8-14-6-11-8-11-1,1-3,3-9,0-10-1-7-10-11-12-23,9-25,8-5-7-8-8,0,3,0,3-5,1-8,0,0-12-1-14-3-1-7-1-9,12-12,12-5-6-11-8-25,7-31,9-19-11-19-11h-6s1-2,1-7-5-13-10-16-10,7-17,11-27,10-32,8-4-10-3-17-10-13-14-14-6,10-6,10a30.83,30.83,0,0,1-5,7c-3,3-22,2-22,2l-9-5s-5-9-7-14-8-5-8-5l-3-4s-1-4-6-9-11,0-13,1,2,14,2,14-5,5-9,3a9.79,9.79,0,0,1-5-5h-3v3s1,6,0,9-15,10-20,10-9-7-12-7-10,1-12,0-3-4-7-6-12-2-16-1-1,17-2,20-11,7-15,6-12-15-13-17-5-8-10-7-10,9-10,16,7,20,7,22-2,4-3,6-12,1-16,0-3,2-3,2v9c0,1-10,2-10,2s-9-2-10-3-1-4-1-4a18.66,18.66,0,0,0,3-4c1-2,0-10,0-10v-7l-2-1c-2-1-4-8-4-8a43.31,43.31,0,0,1-5,1c-1,0-1,8-5,10s-25-11-28-13a13.45,13.45,0,0,0-8-2c-2,0-2,7-4,12s-25,9-28,8-8,4-9,5-1,8-3,9-15,7-16,7-15-4-18-6-6-19-9-21-3,4-4,4-5,1-8,0-1-6-1-6-2-3-3-3-3,4-6,3-2-9-1-11,8-2,10-3,6-14,6-17-5-3-5-3a28.89,28.89,0,0,0,0-10c-1-5-6-4-7-4s-4,5-6,6l-16,8c-4,2-5-7-6-8s0-18,0-24-8-9-8-9a61.22,61.22,0,0,1-6,5c-4,3-5,14-5,14a59.51,59.51,0,0,0-8,1c-6,1-25-9-28-11s-7-3-5,8,11,11,11,11c18-9,22,2,22,2s2,9-2,12,1,13,3,22-12,7-17-2-16-17-16-17a17.26,17.26,0,0,1-9-12c-2-9-4-10-8-13s-10,2-14,3,1,13,4,14,10-2,13,0,2,12,0,16-13,1-19,1-1,14-1,14,5,12,6,7,7-5,7-5,4,7,9,2,18-6,21-4,7,12,11,15,8-2,8-2,9,3,10,4,3,6,3,7-6,7-7,9-4,16-6,20,5,7,6,8,2,5,2,9,5,1,6,2,11,6,12,15,13,29,18,33,11,58,12,63-3,10-8,11-3,4-3,4,2,5,5,15,0,7,0,7-4,9-3,18,6,10,11,8,14-2,14-2l1,5,4,10s10-8,25,3,8,65,5,68,0,14,0,14l9,6c3,2,2,11-2,20s5,20,9,23,21,6,26,21-5,17-5,17-4,2-4,4,25,22,26,22,2-2,7-6a13.05,13.05,0,0,1,10-3s37,13,36,6,1-17,11-26,25-7,28-11-9-6-13-13,4-8,4-13-1-16-3-28,17-28,28-41l2.83-3.32c-13.16-1.16-47.79-6.38-59.83-29.68-15-29,0-40,0-40s32-33,49-24,35,14,42,12,28-11,29-22c.43-4.76-2.51-12.14-5.57-20.85-.57-1.61-1.14-3.27-1.69-5-3.38-10.31-6.17-22-3.74-33.19,4.93-22.7,38.12-74.62,94.75-85.58l2.25-.42,2.34-.41c55.9-9.91,64.74-21.55,70.66-18.59s6,21,7,31,12,34,28,36,19,10,20,14c.42,1.68.49,6,1.09,11.16.18,1.57.41,3.22.72,4.91,1.09,6,3.11,12.39,7.19,16.93,9,10,26,30,77,30s47,33,50,39c1.84,3.67,1.81,11.08,6.54,17.89,17.18-16.66,46.71-45.64,56.46-48.89,12-4,62-6,83-5,16.06.76,56.67-28.29,74.9-42C980.28,226.28,980.87,223.34,980.5,221.5Z"/><path class="cls-1" d="M586.5,444.5h.16c-2.08-11.35-5.23-26-9.16-46-10-51-35-64-42-78s-11-47-12-65c0-.68-.1-1.37-.18-2.06-6.83,6.76-13.94,12.86-22.82,16.06-18.61,6.7-68.22,1.77-92.39-1.2,3.34,9.72,6.86,18,6.39,23.2-1,11-27,23-34,25s-25-3-42-12-44,21-44,21-13,12,0,35c9.49,16.79,37.41,23.51,58.69,26.2,5.73-6.16,9.24-8.48,14.31-9.2,7-1,10,0,15,2s3,6,5,14c0,0,1,6,2,8s4,2,8,4,2,14,3,17-8,11-12,17,2,12,2,12l7,4a55,55,0,0,0,14-5c8-4,38-12,38-12l4,1,7,4h7s15,9,18,11,16,0,22-1l.19,0c20.64-18.22,48.88-24,54.81-24C569.5,429.5,574.5,444.5,586.5,444.5Z"/><path class="cls-1" d="M905.5,276.5c-21-1-71,1-83,5-9.42,3.14-37.34,30.32-54.7,47.18l-3.54,3.44c-3.18,3.08-5.84,5.63-7.75,7.38-12,11-35,28-85,38-43.66,8.73-66,57.12-78.92,69.24-1.86,1.74-3.53,2.74-5,2.76h0c-12,0-17-15-24-15-5.68,0-31.79,5.27-52.11,21.7,2.11,4.34,2.11,12.3,2.11,12.3l6,6a40.76,40.76,0,0,1,7,2c2,1,5,9,5,9l4,3s4,1,10,5,10,34,10,34a17.16,17.16,0,0,1-4,6,9.29,9.29,0,0,0-3,6s9,10,12,11,10-7,10-7h2l2,4s-1,6,14,5,108-31,111-31,23,15,26,16,26,3,49,4,78-28,80-31-11-13-11-19,13-22,17-27,19-6,33-18,24-36,25-41,6-5,12-10,2-15-1-24,5-20,8-24,24-11,27-20,2-31-1-37-1-7,0-9,5-1,6-2,4-4,5-8,1-22,1-27a31.81,31.81,0,0,1,1.68-7.6C957.76,251.33,920.67,277.22,905.5,276.5Z"/></svg>